# xmcd
#
# Track frame offsets:
# 150
# 15812
# 50236
# 83754
# 100963
# 125773
# 140481
# 162095
# 185370
#
# Disc length: 2773 seconds
#
# Revision: 1
# Processed by: cddbd v1.5.2PL0 Copyright (c) Steve Scherf et al.
# Submitted via: inCDius 2.0b9
#
DISCID=700ad309
DTITLE=B.B.KING - Blues you can use
DYEAR=2000
DGENRE=Blues
TTITLE0=introduction
TTITLE1=outside help
TTITLE2=ain´t nobody home
TTITLE3=guess who
TTITLE4=i´ve got a mind to give up living
TTITLE5=king´s shuffle
TTITLE6=nobody loves me but my mother
TTITLE7=sweet little angel
TTITLE8=the thirill is gone
EXTD=
EXTT0=
EXTT1=
EXTT2=
EXTT3=
EXTT4=
EXTT5=
EXTT6=
EXTT7=
EXTT8=
PLAYORDER=
